<?xml version="1.0" encoding="UTF-8" standalone="no"?>
<svg
   xmlns:dc="http://purl.org/dc/elements/1.1/"
   xmlns:cc="http://creativecommons.org/ns#"
   xmlns:rdf="http://www.w3.org/1999/02/22-rdf-syntax-ns#"
   xmlns:svg="http://www.w3.org/2000/svg"
   xmlns="http://www.w3.org/2000/svg"
   xmlns:sodipodi="http://sodipodi.sourceforge.net/DTD/sodipodi-0.dtd"
   xmlns:inkscape="http://www.inkscape.org/namespaces/inkscape"
   inkscape:version="1.0 (4035a4fb49, 2020-05-01)"
   sodipodi:docname="chart.svg"
   id="svg4"
   version="1.1"
   viewBox="0 0 20 20">
  <metadata
     id="metadata10">
    <rdf:RDF>
      <cc:Work
         rdf:about="">
        <dc:format>image/svg+xml</dc:format>
        <dc:type
           rdf:resource="http://purl.org/dc/dcmitype/StillImage" />
      </cc:Work>
    </rdf:RDF>
  </metadata>
  <defs
     id="defs8" />
  <sodipodi:namedview
     inkscape:current-layer="svg4"
     inkscape:window-maximized="1"
     inkscape:window-y="-8"
     inkscape:window-x="-8"
     inkscape:cy="10"
     inkscape:cx="5.4705882"
     inkscape:zoom="42.5"
     showgrid="false"
     id="namedview6"
     inkscape:window-height="1017"
     inkscape:window-width="1920"
     inkscape:pageshadow="2"
     inkscape:pageopacity="0"
     guidetolerance="10"
     gridtolerance="10"
     objecttolerance="10"
     borderopacity="1"
     bordercolor="#666666"
     pagecolor="#ffffff" />
  <path
     id="path2"
     d="M4.13 12H4a2 2 0 1 0 1.8 1.11L7.86 10a2.03 2.03 0 0 0 .65-.07l1.55 1.55a2 2 0 1 0 3.72-.37L15.87 8H16a2 2 0 1 0-1.8-1.11L12.14 10a2.03 2.03 0 0 0-.65.07L9.93 8.52a2 2 0 1 0-3.72.37L4.13 12zM0 4c0-1.1.9-2 2-2h16a2 2 0 0 1 2 2v12a2 2 0 0 1-2 2H2a2 2 0 0 1-2-2V4z" />
  <path
     id="path12"
     d="M 1.8025826,17.974554 C 1.3246116,17.928471 0.89535927,17.713167 0.54859562,17.345579 0.27924082,17.060049 0.09491832,16.682176 0.03570336,16.294118 0.0182223,16.179557 0.0126824,14.231037 0.01750733,9.8941176 0.02413551,3.9363308 0.02635554,3.6525404 0.06738915,3.5176471 0.2954252,2.7680045 0.80959275,2.2627328 1.5454615,2.0651474 L 1.7411765,2.0125966 9.8,2.0053351 c 5.432907,-0.0049 8.148014,6.92e-4 8.332545,0.017148 0.545763,0.048668 0.952466,0.2435421 1.318859,0.6319385 0.265413,0.2813515 0.450641,0.6575272 0.511943,1.0396965 0.03417,0.2130316 0.03417,12.3987329 0,12.6117639 -0.119083,0.742381 -0.67014,1.373617 -1.394109,1.596951 -0.08809,0.02718 -0.27339,0.06015 -0.411765,0.07327 -0.304498,0.02888 -16.0548005,0.02738 -16.3548904,-0.0015 z M 4.478068,15.952751 c 0.3764998,-0.09026 0.7054445,-0.278704 0.9704344,-0.555939 0.3754007,-0.392747 0.535011,-0.770128 0.5559395,-1.314459 0.013058,-0.339632 -0.01672,-0.536018 -0.1237483,-0.816107 l -0.061114,-0.159934 1.0249948,-1.547273 1.0249948,-1.547274 0.1710977,-0.0046 c 0.094104,-0.0025 0.2384753,-0.017164 0.3208258,-0.032579 l 0.1497285,-0.028028 0.7649593,0.76496 0.7649595,0.764959 -0.02645,0.151901 c -0.04234,0.243133 -0.032837,0.614016 0.02158,0.842163 0.314309,1.317783 1.822424,1.947565 2.998008,1.251956 0.787792,-0.466147 1.162153,-1.494589 0.857818,-2.356589 -0.03908,-0.110687 -0.07314,-0.218091 -0.07569,-0.238676 -0.0026,-0.02059 0.461244,-0.731232 1.030656,-1.5792161 l 1.035294,-1.541789 0.247059,-0.012531 c 0.295281,-0.01493 0.462043,-0.057021 0.729409,-0.1840623 C 17.774538,7.3745256 18.2171,6.3249925 17.8929,5.3573228 17.685909,4.7394958 17.205498,4.2738912 16.564706,4.0700656 c -0.251415,-0.079971 -0.751124,-0.092433 -1.03062,-0.025701 -0.373546,0.089187 -0.664026,0.2488138 -0.942043,0.51768 -0.390319,0.3774718 -0.575016,0.7972238 -0.596485,1.3556024 -0.01306,0.3396322 0.01672,0.5360176 0.123748,0.8161068 l 0.06111,0.1599336 -1.025197,1.5472739 -1.025198,1.5472739 -0.170895,0.00494 c -0.09399,0.00272 -0.238273,0.017376 -0.320624,0.032579 L 11.488777,10.053395 10.71517,9.2796386 9.9415616,8.5058824 9.9699511,8.4117647 C 10.015295,8.2614398 10.006326,7.7137379 9.9553096,7.5176471 9.7604991,6.768856 9.1661513,6.1906901 8.4265969,6.0305548 8.1803078,5.9772261 7.7411195,5.9835826 7.5129772,6.0437781 6.3205118,6.3584113 5.6803445,7.6211231 6.1383864,8.7551205 l 0.054321,0.1344849 -1.0375301,1.5520146 -1.0375301,1.552014 -0.2470589,0.01258 c -0.2953284,0.01503 -0.4620938,0.05714 -0.7294117,0.184155 -0.6326777,0.300621 -1.0507766,0.893766 -1.1298478,1.602883 -0.090451,0.811175 0.3532111,1.630019 1.0797586,1.992853 0.3357591,0.167676 0.5081701,0.20773 0.9089127,0.211155 0.207776,0.0018 0.3340466,-0.01 0.478068,-0.04451 z"
     style="fill:none;stroke:none;stroke-width:0.0235294" />
  <path
     id="path14"
     d="M 1.8025826,17.974554 C 1.3246116,17.928471 0.89535927,17.713167 0.54859562,17.345579 0.27924082,17.060049 0.09491832,16.682176 0.03570336,16.294118 0.0182223,16.179557 0.0126824,14.231037 0.01750733,9.8941176 0.02413551,3.9363308 0.02635554,3.6525404 0.06738915,3.5176471 0.2954252,2.7680045 0.80959275,2.2627328 1.5454615,2.0651474 L 1.7411765,2.0125966 9.8,2.0053351 c 5.432907,-0.0049 8.148014,6.92e-4 8.332545,0.017148 0.545763,0.048668 0.952466,0.2435421 1.318859,0.6319385 0.265413,0.2813515 0.450641,0.6575272 0.511943,1.0396965 0.03417,0.2130316 0.03417,12.3987329 0,12.6117639 -0.119083,0.742381 -0.67014,1.373617 -1.394109,1.596951 -0.08809,0.02718 -0.27339,0.06015 -0.411765,0.07327 -0.304498,0.02888 -16.0548005,0.02738 -16.3548904,-0.0015 z M 4.478068,15.952751 c 0.3764998,-0.09026 0.7054445,-0.278704 0.9704344,-0.555939 0.3754007,-0.392747 0.535011,-0.770128 0.5559395,-1.314459 0.013058,-0.339632 -0.01672,-0.536018 -0.1237483,-0.816107 l -0.061114,-0.159934 1.0249948,-1.547273 1.0249948,-1.547274 0.1710977,-0.0046 c 0.094104,-0.0025 0.2384753,-0.017164 0.3208258,-0.032579 l 0.1497285,-0.028028 0.7649593,0.76496 0.7649595,0.764959 -0.02645,0.151901 c -0.04234,0.243133 -0.032837,0.614016 0.02158,0.842163 0.314309,1.317783 1.822424,1.947565 2.998008,1.251956 0.787792,-0.466147 1.162153,-1.494589 0.857818,-2.356589 -0.03908,-0.110687 -0.07314,-0.218091 -0.07569,-0.238676 -0.0026,-0.02059 0.461244,-0.731232 1.030656,-1.5792161 l 1.035294,-1.541789 0.247059,-0.012531 c 0.295281,-0.01493 0.462043,-0.057021 0.729409,-0.1840623 C 17.774538,7.3745256 18.2171,6.3249925 17.8929,5.3573228 17.685909,4.7394958 17.205498,4.2738912 16.564706,4.0700656 c -0.251415,-0.079971 -0.751124,-0.092433 -1.03062,-0.025701 -0.373546,0.089187 -0.664026,0.2488138 -0.942043,0.51768 -0.390319,0.3774718 -0.575016,0.7972238 -0.596485,1.3556024 -0.01306,0.3396322 0.01672,0.5360176 0.123748,0.8161068 l 0.06111,0.1599336 -1.025197,1.5472739 -1.025198,1.5472739 -0.170895,0.00494 c -0.09399,0.00272 -0.238273,0.017376 -0.320624,0.032579 L 11.488777,10.053395 10.71517,9.2796386 9.9415616,8.5058824 9.9699511,8.4117647 C 10.015295,8.2614398 10.006326,7.7137379 9.9553096,7.5176471 9.7604991,6.768856 9.1661513,6.1906901 8.4265969,6.0305548 8.1803078,5.9772261 7.7411195,5.9835826 7.5129772,6.0437781 6.3205118,6.3584113 5.6803445,7.6211231 6.1383864,8.7551205 l 0.054321,0.1344849 -1.0375301,1.5520146 -1.0375301,1.552014 -0.2470589,0.01258 c -0.2953284,0.01503 -0.4620938,0.05714 -0.7294117,0.184155 -0.6326777,0.300621 -1.0507766,0.893766 -1.1298478,1.602883 -0.090451,0.811175 0.3532111,1.630019 1.0797586,1.992853 0.3357591,0.167676 0.5081701,0.20773 0.9089127,0.211155 0.207776,0.0018 0.3340466,-0.01 0.478068,-0.04451 z"
     style="fill:none;stroke-width:0.0235294" />
  <path
     id="path16"
     d="M 1.8025826,17.974554 C 1.3246116,17.928471 0.89535927,17.713167 0.54859562,17.345579 0.27924082,17.060049 0.09491832,16.682176 0.03570336,16.294118 0.0182223,16.179557 0.0126824,14.231037 0.01750733,9.8941176 0.02413551,3.9363308 0.02635554,3.6525404 0.06738915,3.5176471 0.2954252,2.7680045 0.80959275,2.2627328 1.5454615,2.0651474 L 1.7411765,2.0125966 9.8,2.0053351 c 5.432907,-0.0049 8.148014,6.92e-4 8.332545,0.017148 0.545763,0.048668 0.952466,0.2435421 1.318859,0.6319385 0.265413,0.2813515 0.450641,0.6575272 0.511943,1.0396965 0.03417,0.2130316 0.03417,12.3987329 0,12.6117639 -0.119083,0.742381 -0.67014,1.373617 -1.394109,1.596951 -0.08809,0.02718 -0.27339,0.06015 -0.411765,0.07327 -0.304498,0.02888 -16.0548005,0.02738 -16.3548904,-0.0015 z M 4.478068,15.952751 c 0.3764998,-0.09026 0.7054445,-0.278704 0.9704344,-0.555939 0.3754007,-0.392747 0.535011,-0.770128 0.5559395,-1.314459 0.013058,-0.339632 -0.01672,-0.536018 -0.1237483,-0.816107 l -0.061114,-0.159934 1.0249948,-1.547273 1.0249948,-1.547274 0.1710977,-0.0046 c 0.094104,-0.0025 0.2384753,-0.017164 0.3208258,-0.032579 l 0.1497285,-0.028028 0.7649593,0.76496 0.7649595,0.764959 -0.02645,0.151901 c -0.04234,0.243133 -0.032837,0.614016 0.02158,0.842163 0.314309,1.317783 1.822424,1.947565 2.998008,1.251956 0.787792,-0.466147 1.162153,-1.494589 0.857818,-2.356589 -0.03908,-0.110687 -0.07314,-0.218091 -0.07569,-0.238676 -0.0026,-0.02059 0.461244,-0.731232 1.030656,-1.5792161 l 1.035294,-1.541789 0.247059,-0.012531 c 0.295281,-0.01493 0.462043,-0.057021 0.729409,-0.1840623 C 17.774538,7.3745256 18.2171,6.3249925 17.8929,5.3573228 17.685909,4.7394958 17.205498,4.2738912 16.564706,4.0700656 c -0.251415,-0.079971 -0.751124,-0.092433 -1.03062,-0.025701 -0.373546,0.089187 -0.664026,0.2488138 -0.942043,0.51768 -0.390319,0.3774718 -0.575016,0.7972238 -0.596485,1.3556024 -0.01306,0.3396322 0.01672,0.5360176 0.123748,0.8161068 l 0.06111,0.1599336 -1.025197,1.5472739 -1.025198,1.5472739 -0.170895,0.00494 c -0.09399,0.00272 -0.238273,0.017376 -0.320624,0.032579 L 11.488777,10.053395 10.71517,9.2796386 9.9415616,8.5058824 9.9699511,8.4117647 C 10.015295,8.2614398 10.006326,7.7137379 9.9553096,7.5176471 9.7604991,6.768856 9.1661513,6.1906901 8.4265969,6.0305548 8.1803078,5.9772261 7.7411195,5.9835826 7.5129772,6.0437781 6.3205118,6.3584113 5.6803445,7.6211231 6.1383864,8.7551205 l 0.054321,0.1344849 -1.0375301,1.5520146 -1.0375301,1.552014 -0.2470589,0.01258 c -0.2953284,0.01503 -0.4620938,0.05714 -0.7294117,0.184155 -0.6326777,0.300621 -1.0507766,0.893766 -1.1298478,1.602883 -0.090451,0.811175 0.3532111,1.630019 1.0797586,1.992853 0.3357591,0.167676 0.5081701,0.20773 0.9089127,0.211155 0.207776,0.0018 0.3340466,-0.01 0.478068,-0.04451 z"
     style="fill:#ffcf00;stroke-width:0.0235294;fill-opacity:1" />
</svg>
