<?xml version="1.0" encoding="UTF-8" standalone="no"?>
<svg
   xmlns:dc="http://purl.org/dc/elements/1.1/"
   xmlns:cc="http://creativecommons.org/ns#"
   xmlns:rdf="http://www.w3.org/1999/02/22-rdf-syntax-ns#"
   xmlns:svg="http://www.w3.org/2000/svg"
   xmlns="http://www.w3.org/2000/svg"
   xmlns:sodipodi="http://sodipodi.sourceforge.net/DTD/sodipodi-0.dtd"
   xmlns:inkscape="http://www.inkscape.org/namespaces/inkscape"
   inkscape:version="1.0 (4035a4fb49, 2020-05-01)"
   sodipodi:docname="currency-dollar.svg"
   id="svg4"
   version="1.1"
   viewBox="0 0 20 20">
  <metadata
     id="metadata10">
    <rdf:RDF>
      <cc:Work
         rdf:about="">
        <dc:format>image/svg+xml</dc:format>
        <dc:type
           rdf:resource="http://purl.org/dc/dcmitype/StillImage" />
      </cc:Work>
    </rdf:RDF>
  </metadata>
  <defs
     id="defs8" />
  <sodipodi:namedview
     inkscape:current-layer="svg4"
     inkscape:window-maximized="1"
     inkscape:window-y="-8"
     inkscape:window-x="-8"
     inkscape:cy="10"
     inkscape:cx="10"
     inkscape:zoom="42.5"
     showgrid="false"
     id="namedview6"
     inkscape:window-height="1017"
     inkscape:window-width="1920"
     inkscape:pageshadow="2"
     inkscape:pageopacity="0"
     guidetolerance="10"
     gridtolerance="10"
     objecttolerance="10"
     borderopacity="1"
     bordercolor="#666666"
     pagecolor="#ffffff" />
  <path
     id="path2"
     d="M10 20a10 10 0 1 1 0-20 10 10 0 0 1 0 20zm1-5h1a3 3 0 0 0 0-6H7.99a1 1 0 0 1 0-2H14V5h-3V3H9v2H8a3 3 0 1 0 0 6h4a1 1 0 1 1 0 2H6v2h3v2h2v-2z" />
  <path
     id="path835"
     d="M 9.5764706,19.973473 C 7.0504216,19.880245 4.5728887,18.761485 2.8023264,16.914527 1.4761467,15.531125 0.58154482,13.821777 0.21179527,11.964706 -0.01329261,10.834199 -0.04640818,9.7778064 0.10779441,8.6470588 0.5935136,5.0853438 2.9793042,2.0411029 6.3183626,0.72244675 7.6553092,0.19446175 8.9482471,-0.02474038 10.423529,0.0264649 c 1.989153,0.06904111 3.991812,0.79161345 5.61804,2.0270248 3.311374,2.5155809 4.719553,6.842163 3.521096,10.8184423 -1.171907,3.888188 -4.572839,6.675923 -8.621489,7.06701 -0.459276,0.04436 -0.838357,0.05396 -1.3647054,0.03453 z M 11,16.014282 v -0.997484 l 0.711765,-0.01166 c 0.766569,-0.01256 0.866966,-0.02514 1.269941,-0.159105 1.008344,-0.335214 1.797485,-1.256571 1.981872,-2.313921 0.04728,-0.271136 0.04728,-0.793082 0,-1.064218 C 14.779447,10.412007 13.991296,9.4896336 12.988235,9.1561471 12.505996,8.9958176 12.659429,9.0046327 10.094118,8.9898729 7.8615209,8.9770275 7.7603052,8.9745833 7.6588235,8.9310614 7.3043878,8.7790562 7.0866904,8.514632 7.0205767,8.1558198 6.9301856,7.6652506 7.2779136,7.1522631 7.7791685,7.0367033 7.8458172,7.0213381 8.9675115,7.0127115 10.947059,7.01234 l 3.064706,-5.753e-4 V 6 4.9882353 H 12.505882 11 v -1 -1 H 10 9 V 3.9857184 4.9832016 L 8.2882353,4.9948652 C 7.5194202,5.0074638 7.4219207,5.0197828 7.0117647,5.1561471 6.0087038,5.4896336 5.2205532,6.4120066 5.0364224,7.4678911 c -0.047282,0.2711362 -0.047282,0.7930816 0,1.0642178 0.1839844,1.0550443 0.9730795,1.9785231 1.9753423,2.3117441 0.4824666,0.160405 0.3300026,0.1516 2.8823529,0.166469 2.1461774,0.0125 2.3254234,0.01659 2.4227584,0.05529 0.265472,0.105543 0.461171,0.283693 0.582059,0.529864 0.06043,0.123061 0.06577,0.155902 0.06577,0.404523 0,0.249209 -0.0052,0.281273 -0.06639,0.405827 -0.08525,0.173665 -0.26254,0.367222 -0.409741,0.447338 -0.258859,0.140889 -0.110381,0.13507 -3.4464607,0.13507 h -3.05388 V 14 15.011765 H 7.4941176 9 v 1 1 h 1 1 z"
     style="fill:#ffcf00;stroke-width:0.0235294" />
  <path
     id="path837"
     d="M 9.3871391,19.951883 C 7.717484,19.856643 6.0264551,19.296136 4.5764706,18.357345 2.2606554,16.857972 0.66324814,14.446348 0.17847897,11.717647 0.06454836,11.076347 0.04869951,10.870786 0.04786162,10.023529 0.04704535,9.1981405 0.05733793,9.0445624 0.15509122,8.4235294 0.50062052,6.2283593 1.6389794,4.1269941 3.2962115,2.6251459 5.6501031,0.49195786 8.8460511,-0.39465958 11.952941,0.22360257 c 3.019157,0.60080341 5.6043,2.58499813 6.974079,5.35286803 0.509689,1.0299118 0.809067,2.0210023 0.970456,3.2126892 0.04747,0.3505035 0.05412,0.4978762 0.05467,1.2108402 6.65e-4,0.868879 -0.01852,1.108303 -0.143307,1.788235 -0.699677,3.812429 -3.564401,6.891596 -7.311286,7.858585 -1.050316,0.271064 -2.027048,0.36686 -3.1104119,0.305063 z M 11,16.027017 v -0.984748 l 0.194118,-0.01511 c 0.106764,-0.0083 0.374117,-0.01536 0.594117,-0.01566 0.497924,-6.82e-4 0.765668,-0.02814 1.034738,-0.106114 0.710757,-0.205969 1.281869,-0.624908 1.699359,-1.24656 0.203052,-0.302351 0.374027,-0.717669 0.441183,-1.071688 0.04928,-0.259786 0.04928,-0.914486 0,-1.174272 C 14.818876,10.650389 14.329873,9.9214496 13.663445,9.4748936 13.451923,9.3331579 13.228091,9.2273711 12.926028,9.1263776 12.56675,9.0062544 12.359193,8.990936 11.035294,8.9868346 10.491765,8.9851499 9.5229412,8.9763645 8.8823529,8.9673092 L 7.7176471,8.9508454 7.5901805,8.884796 C 7.4369421,8.8053922 7.2340487,8.6187012 7.1560372,8.4853221 7.0266073,8.2640304 6.9903146,7.9792115 7.0611515,7.7406776 7.1382953,7.4809064 7.3587779,7.2263205 7.6076435,7.1096567 l 0.133533,-0.062598 1.7294117,-0.014599 c 0.9511768,-0.00803 2.3620588,-0.015971 3.1352938,-0.017647 l 1.405883,-0.00305 V 6 4.9882353 H 12.505882 11 v -1 -1 H 10 9 V 3.9764706 C 9,4.52 8.9973529,4.9651986 8.9941176,4.9658009 8.9908824,4.9664033 8.66,4.9761329 8.2588235,4.9874226 7.7659849,5.001292 7.475992,5.019532 7.3647059,5.0436607 7.1569016,5.0887165 6.8187873,5.2075631 6.6357301,5.2998946 5.8276932,5.7074565 5.2035696,6.5320671 5.0364852,7.4128642 c -0.049281,0.2597862 -0.049281,0.9144854 0,1.1742716 0.1447976,0.7633108 0.642848,1.5039442 1.3051273,1.9408092 0.2285583,0.150765 0.4207583,0.241495 0.7320861,0.345586 0.3585002,0.119863 0.5675586,0.135498 1.8674779,0.139666 0.5305882,0.0017 1.4941175,0.01043 2.1411765,0.01941 l 1.176471,0.01631 L 12.4,11.11836 c 0.189977,0.09345 0.394163,0.299031 0.482541,0.485847 0.06433,0.135988 0.07037,0.170089 0.07038,0.397917 1.7e-5,0.230792 -0.0053,0.259797 -0.07184,0.392987 -0.1519,0.30398 -0.405029,0.50314 -0.692846,0.545126 -0.100493,0.01466 -1.341177,0.03021 -3.1823526,0.03989 l -3.0176471,0.01587 v 1.007884 1.007884 H 7.4941176 9 v 1 1 h 1 1 z"
     style="fill:#ffcf00;stroke-width:0.0235294" />
</svg>
