<?xml version="1.0" encoding="UTF-8" standalone="no"?>
<svg
   xmlns:dc="http://purl.org/dc/elements/1.1/"
   xmlns:cc="http://creativecommons.org/ns#"
   xmlns:rdf="http://www.w3.org/1999/02/22-rdf-syntax-ns#"
   xmlns:svg="http://www.w3.org/2000/svg"
   xmlns="http://www.w3.org/2000/svg"
   xmlns:sodipodi="http://sodipodi.sourceforge.net/DTD/sodipodi-0.dtd"
   xmlns:inkscape="http://www.inkscape.org/namespaces/inkscape"
   inkscape:version="1.0 (4035a4fb49, 2020-05-01)"
   sodipodi:docname="globe.svg"
   id="svg4"
   version="1.1"
   viewBox="0 0 20 20">
  <metadata
     id="metadata10">
    <rdf:RDF>
      <cc:Work
         rdf:about="">
        <dc:format>image/svg+xml</dc:format>
        <dc:type
           rdf:resource="http://purl.org/dc/dcmitype/StillImage" />
      </cc:Work>
    </rdf:RDF>
  </metadata>
  <defs
     id="defs8" />
  <sodipodi:namedview
     inkscape:current-layer="svg4"
     inkscape:window-maximized="1"
     inkscape:window-y="-8"
     inkscape:window-x="-8"
     inkscape:cy="10"
     inkscape:cx="10"
     inkscape:zoom="42.5"
     showgrid="false"
     id="namedview6"
     inkscape:window-height="1017"
     inkscape:window-width="1920"
     inkscape:pageshadow="2"
     inkscape:pageopacity="0"
     guidetolerance="10"
     gridtolerance="10"
     objecttolerance="10"
     borderopacity="1"
     bordercolor="#666666"
     pagecolor="#ffffff" />
  <path
     id="path2"
     d="M10 20a10 10 0 1 1 0-20 10 10 0 0 1 0 20zm2-2.25a8 8 0 0 0 4-2.46V9a2 2 0 0 1-2-2V3.07a7.95 7.95 0 0 0-3-1V3a2 2 0 0 1-2 2v1a2 2 0 0 1-2 2v2h3a2 2 0 0 1 2 2v5.75zm-4 0V15a2 2 0 0 1-2-2v-1h-.5A1.5 1.5 0 0 1 4 10.5V8H2.25A8.01 8.01 0 0 0 8 17.75z" />
  <path
     id="path835"
     d="M 9.5764706,19.973473 C 7.6121525,19.900976 5.6299019,19.195105 4.0284678,17.997853 0.29888946,15.209572 -1.0127019,10.228741 0.86290318,5.9764706 1.9209331,3.5777621 3.8899089,1.6814882 6.3183626,0.72244675 7.6553092,0.19446175 8.9482471,-0.02474038 10.423529,0.0264649 c 1.989153,0.06904111 3.991812,0.79161345 5.61804,2.0270248 3.311374,2.5155809 4.719553,6.842163 3.521096,10.8184423 -1.171907,3.888188 -4.572839,6.675923 -8.621489,7.06701 -0.459276,0.04436 -0.838357,0.05396 -1.3647054,0.03453 z M 8.0117647,16.381638 V 14.998571 L 7.7823529,14.97082 C 6.8823184,14.861948 6.1767108,14.184386 6.0362501,13.294118 6.0229788,13.21 6.0120402,12.886046 6.0119424,12.574219 l -1.777e-4,-0.566958 -0.3705882,-0.0149 C 5.2137268,11.975174 5.0664318,11.9423 4.8021082,11.805092 4.4775767,11.636632 4.2242499,11.337727 4.0865696,10.960814 L 4.0235294,10.788235 4.0166016,9.3941176 4.0096741,8 H 3.1198358 2.2299976 L 2.1787387,8.2407261 C 1.8101564,9.9716927 1.975658,11.653983 2.67046,13.238976 c 0.4360261,0.994668 1.1325687,1.964875 1.9245986,2.680752 0.863659,0.780619 1.8444734,1.349888 2.930395,1.700814 0.3284123,0.10613 0.42094,0.134053 0.468664,0.141434 0.00971,0.0015 0.017647,-0.619651 0.017647,-1.380338 z m 4.4254443,1.250685 c 0.906517,-0.289864 1.773664,-0.748659 2.510611,-1.328327 0.280464,-0.220607 0.709134,-0.612705 0.895488,-0.819088 l 0.168457,-0.186564 V 12.148458 8.9985708 L 15.782353,8.9708202 C 14.994576,8.8755273 14.345353,8.3429193 14.111392,7.6 c -0.02649,-0.084118 -0.05662,-0.1794118 -0.06695,-0.2117647 -0.01033,-0.032353 -0.02456,-1.0223529 -0.03161,-2.2 L 14,3.0470588 13.575623,2.8352941 C 13.128648,2.6122529 12.727219,2.4540661 12.258824,2.3163971 11.950899,2.2258931 11.373963,2.1029713 11.144572,2.0789952 L 11,2.0638844 l -2e-5,0.4209989 c -2.3e-5,0.7281889 -0.05107,1.053744 -0.21722,1.3857049 -0.304748,0.6088629 -0.8906628,1.021808 -1.5632809,1.1017793 L 9,4.9984626 8.9992071,5.4580548 C 8.9987718,5.7108306 8.9886572,6.0258468 8.9767311,6.1580911 8.9042741,6.9615468 8.3767287,7.6297136 7.6147216,7.8831553 7.4852687,7.9262111 7.3151671,7.9630685 7.2029569,7.9723762 L 7.0117647,7.9882353 7.0056296,8.9941176 6.9994948,10 l 1.4531937,2e-5 c 0.8008713,1.1e-5 1.5661305,0.01073 1.7047845,0.02388 0.525076,0.04979 0.934142,0.249127 1.293931,0.630523 0.265413,0.281352 0.450641,0.657527 0.511943,1.039697 0.01608,0.100221 0.02459,1.173021 0.02471,3.112213 l 1.77e-4,2.959271 0.06471,-0.01555 c 0.03559,-0.0086 0.208509,-0.06153 0.384268,-0.11773 z"
     style="fill:#e3170a;stroke-width:0.0235294" />
</svg>
