<?xml version="1.0" encoding="UTF-8" standalone="no"?>
<svg
   xmlns:dc="http://purl.org/dc/elements/1.1/"
   xmlns:cc="http://creativecommons.org/ns#"
   xmlns:rdf="http://www.w3.org/1999/02/22-rdf-syntax-ns#"
   xmlns:svg="http://www.w3.org/2000/svg"
   xmlns="http://www.w3.org/2000/svg"
   xmlns:sodipodi="http://sodipodi.sourceforge.net/DTD/sodipodi-0.dtd"
   xmlns:inkscape="http://www.inkscape.org/namespaces/inkscape"
   inkscape:version="1.0 (4035a4fb49, 2020-05-01)"
   sodipodi:docname="mood-happy-outline.svg"
   id="svg4"
   version="1.1"
   viewBox="0 0 20 20">
  <metadata
     id="metadata10">
    <rdf:RDF>
      <cc:Work
         rdf:about="">
        <dc:format>image/svg+xml</dc:format>
        <dc:type
           rdf:resource="http://purl.org/dc/dcmitype/StillImage" />
      </cc:Work>
    </rdf:RDF>
  </metadata>
  <defs
     id="defs8" />
  <sodipodi:namedview
     inkscape:current-layer="svg4"
     inkscape:window-maximized="1"
     inkscape:window-y="-8"
     inkscape:window-x="-8"
     inkscape:cy="10"
     inkscape:cx="10"
     inkscape:zoom="42.5"
     showgrid="false"
     id="namedview6"
     inkscape:window-height="1017"
     inkscape:window-width="1920"
     inkscape:pageshadow="2"
     inkscape:pageopacity="0"
     guidetolerance="10"
     gridtolerance="10"
     objecttolerance="10"
     borderopacity="1"
     bordercolor="#666666"
     pagecolor="#ffffff" />
  <path
     id="path2"
     d="M10 20a10 10 0 1 1 0-20 10 10 0 0 1 0 20zm0-2a8 8 0 1 0 0-16 8 8 0 0 0 0 16zM6.5 9a1.5 1.5 0 1 1 0-3 1.5 1.5 0 0 1 0 3zm7 0a1.5 1.5 0 1 1 0-3 1.5 1.5 0 0 1 0 3zm2.16 3a6 6 0 0 1-11.32 0h11.32z" />
  <path
     id="path835"
     d="M 9.5764706,19.973473 C 7.0548814,19.880409 4.5862934,18.767673 2.8099042,16.923387 1.4861416,15.549027 0.58178915,13.823004 0.21179527,11.964706 -0.01329261,10.834199 -0.04640818,9.7778064 0.10779441,8.6470588 0.5935136,5.0853438 2.9793042,2.0411029 6.3183626,0.72244675 7.6553092,0.19446175 8.9482471,-0.02474038 10.423529,0.0264649 c 1.989153,0.06904111 3.991812,0.79161345 5.61804,2.0270248 3.311245,2.5154828 4.719507,6.8423181 3.521096,10.8184423 -1.171846,3.887987 -4.573049,6.675943 -8.621489,7.06701 -0.459276,0.04436 -0.838357,0.05396 -1.3647054,0.03453 z m 1.2823534,-2.009209 c 0.783903,-0.08707 1.484583,-0.264206 2.186629,-0.552788 2.548782,-1.047697 4.393924,-3.349221 4.84772,-6.04677 0.08732,-0.519058 0.106176,-0.761431 0.106176,-1.364706 0,-0.7591812 -0.06154,-1.2881454 -0.22585,-1.9411765 C 17.289883,6.1367071 16.145297,4.4944631 14.512526,3.3800005 13.503907,2.6915586 12.406964,2.264187 11.141176,2.0665148 10.836248,2.0188956 10.715004,2.0132348 10,2.0132348 c -0.715004,0 -0.8362482,0.00566 -1.1411765,0.05328 C 7.0957809,2.3418409 5.5665285,3.1058355 4.3528369,4.3176471 3.0368925,5.6315532 2.2554057,7.2552275 2.031236,9.1411765 1.991474,9.4756941 1.991731,10.518231 2.0316585,10.858824 c 0.2651082,2.261422 1.3765817,4.209566 3.1681175,5.552941 1.1665329,0.874719 2.5365525,1.411013 3.9884593,1.561283 0.340648,0.03526 1.3204837,0.0301 1.6705887,-0.0088 z"
     style="fill:#ffd42a;stroke-width:0.0235294" />
  <path
     id="path837"
     d="m 9.6117647,15.986117 c -0.045294,-0.0054 -0.1882353,-0.0211 -0.3176471,-0.03493 C 7.3769233,15.74638 5.5750644,14.496448 4.6836323,12.752938 4.5669585,12.524741 4.4157444,12.178889 4.3775775,12.052938 L 4.3615347,12 h 5.6368797 c 3.1002836,0 5.6368796,0.0085 5.6368796,0.01896 0,0.04479 -0.180419,0.461665 -0.309851,0.71593 -0.883047,1.73472 -2.590133,2.942118 -4.536512,3.208612 -0.245072,0.03355 -1.0180263,0.06154 -1.1771663,0.04262 z"
     style="fill:#ffd42a;stroke-width:0.0235294" />
  <path
     id="path839"
     d="M 13.188235,8.9516464 C 12.770974,8.8620292 12.366501,8.5464965 12.179477,8.1647059 12.020439,7.8400445 11.976484,7.523226 12.045386,7.1981908 c 0.115411,-0.5444325 0.552312,-0.9985379 1.096339,-1.1395094 0.187959,-0.048705 0.528837,-0.048937 0.717099,-4.884e-4 0.513672,0.1321928 0.952883,0.5713608 1.082149,1.0820446 0.04628,0.1828387 0.04555,0.5436041 -0.0015,0.7250728 -0.199096,0.7683404 -0.979084,1.2521795 -1.75126,1.086336 z"
     style="fill:#ffd42a;stroke-width:0.0235294" />
  <path
     id="path841"
     d="M 6.1873382,8.9535652 C 5.6531289,8.8372701 5.1986058,8.3982612 5.0604641,7.8651546 5.0134816,7.6838434 5.0127662,7.3229965 5.059027,7.1402376 5.1882934,6.6295538 5.627504,6.1903858 6.1411765,6.058193 c 0.188876,-0.048607 0.5290324,-0.04821 0.7189799,8.393e-4 0.6213735,0.1604541 1.081618,0.7147874 1.1203417,1.3493752 0.05908,0.96818 -0.849027,1.7506918 -1.7931599,1.5451577 z"
     style="fill:#ffcf00;stroke-width:0.0235294;fill-opacity:1" />
  <path
     id="path843"
     d="M 9.2912901,15.942295 C 8.5476871,15.841054 7.9971951,15.674371 7.367716,15.359858 6.0305419,14.691752 5.0073829,13.58823 4.4561516,12.21961 c -0.037354,-0.09274 -0.067916,-0.181639 -0.067916,-0.197544 0,-0.02284 1.1785022,-0.02527 5.6058823,-0.01157 3.0832351,0.0095 5.6101701,0.02155 5.6154111,0.02668 0.02707,0.02651 -0.297923,0.714169 -0.49148,1.039934 -0.890734,1.499147 -2.491305,2.569526 -4.248444,2.841139 -0.333553,0.05156 -1.2712887,0.06584 -1.5783146,0.02404 z"
     style="fill:#ffcf00;fill-opacity:1;stroke-width:0.0235294" />
  <path
     id="path845"
     d="M 13.142861,8.9272713 C 12.846585,8.8476216 12.50738,8.6189125 12.332801,8.3810873 12.2229,8.231372 12.095589,7.95541 12.061477,7.7929595 c -0.03653,-0.1739477 -0.03206,-0.4592109 0.01,-0.6375921 0.05947,-0.2522838 0.184089,-0.4608683 0.409489,-0.6853865 0.214556,-0.2137173 0.433927,-0.3448167 0.671983,-0.4015877 0.191604,-0.045693 0.586147,-0.033876 0.764706,0.022904 0.45556,0.1448631 0.85298,0.5449134 0.991678,0.9982406 0.04206,0.1374588 0.04756,0.2040741 0.03888,0.4705883 -0.0093,0.284441 -0.0164,0.3252534 -0.08514,0.486933 -0.185743,0.4368337 -0.564726,0.7621574 -1.02683,0.8814459 -0.174912,0.045152 -0.523134,0.044533 -0.693372,-0.00123 z"
     style="fill:#ffcf00;fill-opacity:1;stroke-width:0.0235294" />
  <path
     id="path847"
     d="M 6.1176471,8.9219075 C 5.8667481,8.8475649 5.6848023,8.7342369 5.4704644,8.5187984 5.1515996,8.1982964 5.0478231,7.9461472 5.0473381,7.4907138 5.0470097,7.1823563 5.0915949,7.008029 5.2286514,6.7817829 5.3621586,6.5613957 5.497468,6.4169008 5.6924757,6.2864717 5.9094206,6.1413701 6.0822742,6.0751784 6.3231089,6.0449803 7.0060227,5.9593503 7.6390791,6.3575798 7.8883525,7.0296106 7.9667165,7.2408768 7.9857035,7.5895482 7.9314275,7.8206037 7.8174451,8.3058239 7.4309286,8.7283355 6.9450979,8.8987871 6.7434465,8.9695351 6.318464,8.9814101 6.1176471,8.9219075 Z"
     style="fill:#ffcf00;fill-opacity:1;stroke-width:0.0235294" />
  <path
     id="path849"
     d="M 9.3757965,19.951206 C 7.3293024,19.833623 5.3151061,19.034571 3.6503412,17.67986 3.2922259,17.388441 2.6591028,16.7589 2.3513692,16.388235 1.2301601,15.037742 0.48299416,13.431722 0.17847897,11.717647 0.06454836,11.076347 0.04869951,10.870786 0.04786162,10.023529 0.04704535,9.1981405 0.05733793,9.0445624 0.15509122,8.4235294 0.57141649,5.778588 2.0941195,3.3599904 4.3176471,1.8118999 6.5332607,0.26931941 9.2953468,-0.30525101 11.952941,0.22360257 c 3.019157,0.60080341 5.6043,2.58499813 6.974079,5.35286803 0.509689,1.0299118 0.809067,2.0210023 0.970456,3.2126892 0.04747,0.3505035 0.05412,0.4978762 0.05467,1.2108402 6.65e-4,0.868879 -0.01852,1.108303 -0.143307,1.788235 -0.699677,3.812429 -3.564401,6.891596 -7.311286,7.858585 -1.05453,0.272152 -2.029027,0.36717 -3.1217545,0.304386 z m 1.4628875,-1.975482 c 1.149415,-0.114513 2.321072,-0.508056 3.325006,-1.116824 0.574911,-0.348616 0.98994,-0.679344 1.518663,-1.210188 0.652364,-0.654983 1.079383,-1.240509 1.475017,-2.022533 0.402056,-0.794722 0.647657,-1.589604 0.800525,-2.590885 0.05248,-0.343734 0.05887,-1.585798 0.01023,-1.9882352 C 17.78666,7.5455242 17.174605,6.1036936 16.215201,4.9176471 15.998514,4.6497715 15.467887,4.1162671 15.164706,3.8614562 14.043384,2.9190322 12.756083,2.3314143 11.23488,2.0675981 10.939095,2.0163012 10.855605,2.0125776 10,2.0125238 9.1533772,2.0124704 9.0589078,2.0165666 8.7794362,2.0654475 7.0421896,2.3693 5.6066169,3.0843384 4.4288882,4.2323939 3.1108264,5.5172468 2.3540504,6.9958304 2.0569403,8.8666896 1.9960029,9.250404 1.9713016,10.17305 2.008646,10.670588 c 0.045991,0.612735 0.1688516,1.212262 0.3785168,1.847059 0.3917883,1.186206 0.9909386,2.177733 1.8459337,3.054813 1.2933237,1.326733 2.9501409,2.157024 4.771279,2.39106 0.2984109,0.03835 1.4921565,0.04629 1.8343085,0.0122 z"
     style="fill:#ffcf00;fill-opacity:1;stroke-width:0.0235294" />
</svg>
